{"title":"This.Means.War.2012.TS.XviD-Feel-Free","uid":7047565,"size":1128081609,"categoryP":"video","categoryS":"movies","magnet":"?xt=urn:btih:9616ea9eb23266061ebfa3109335790a84eb7ffe&amp;dn=This.Means.War.2012.TS.XviD-Feel-Free&amp;tr=udp%3A%2F%2Ftracker.openbittorrent.com%3A80&amp;tr=udp%3A%2F%2Fopen.demonii.com%3A1337&amp;tr=udp%3A%2F%2Ftracker.coppersurfer.tk%3A6969&amp;tr=udp%3A%2F%2Fexodus.desync.com%3A6969","seeders":3,"leechers":0,"uploader":".BONE.","files":8,"time":1329801836,"description":"Genre:Action | Comedy | Romance\nLanguage:English &lt;a href=&quot;\nhttp://www.imdb.com/title/tt1596350/&quot; rel=&quot;nofollow&quot; target=&quot;_NEW&quot;&gt;\nhttp://www.imdb.com/title/tt1596350/&lt;/a&gt;\nSource:Lum1x/SIC Thanks!\nEncoder:Tony\n\nFormat : AVI\nFormat/Info : Audio Video Interleave\nFile size : 1.05 GiB\nDuration : 1h 31mn\nOverall bit rate : 1 642 Kbps\n\nVideo\nID : 0\nFormat : MPEG-4 Visual\nFormat profile : Advanced Simple@L5\nFormat settings, BVOP : 1\nFormat settings, QPel : No\nFormat settings, GMC : No warppoints\nFormat settings, Matrix : Default (H.263)\nCodec ID : XVID\nCodec ID/Hint : XviD\nDuration : 1h 31mn\nBit rate : 1 441 Kbps\nWidth : 624 pixels\nHeight : 296 pixels\nDisplay aspect ratio : 2.2:1\nFrame rate : 25.000 fps\nColor space : YUV\nChroma subsampling : 4:2:0\nBit depth : 8 bits\nScan type : Progressive\nCompression mode : Lossy\nBits/(Pixel*Frame) : 0.312\nStream size : 943 MiB (88%)\nWriting library : XviD 1.2.1 (UTC 2008-12-04)\n\nAudio\nID : 1\nFormat : AC-3\nFormat/Info : Audio Coding 3\nMode extension : CM (complete main)\nCodec ID : 2000\nDuration : 1h 31mn\nBit rate mode : Constant\nBit rate : 192 Kbps\nChannel(s) : 2 channels\nChannel positions : Front: L R\nSampling rate : 48.0 KHz\nBit depth : 16 bits\nCompression mode : Lossy\nStream size : 126 MiB (12%)\nAlignment : Aligned on interleaves\nInterleave, duration : 40 ms (1.00 video frame)\nInterleave, preload duration : 512 ms\n\n\nPlot:\nTwo top CIA operatives wage an epic battle against one another after they discover they are dating the same woman.\n &lt;a href=&quot;\nhttp://imgcrave.com/u/bk9yB.png&quot; rel=&quot;nofollow&quot; target=&quot;_NEW&quot;&gt;\nhttp://imgcrave.com/u/bk9yB.png&lt;/a&gt; &lt;a href=&quot;\nhttp://imgcrave.com/u/P65zR.png&quot; rel=&quot;nofollow&quot; target=&quot;_NEW&quot;&gt;\nhttp://imgcrave.com/u/P65zR.png&lt;/a&gt; &lt;a href=&quot;\nhttp://imgcrave.com/u/LEqXj.png&quot; rel=&quot;nofollow&quot; target=&quot;_NEW&quot;&gt;\nhttp://imgcrave.com/u/LEqXj.png&lt;/a&gt; &lt;a href=&quot;\nhttp://imgcrave.com/u/VCI2A.png&quot; rel=&quot;nofollow&quot; target=&quot;_NEW&quot;&gt;\nhttp://imgcrave.com/u/VCI2A.png&lt;/a&gt;\n\n\n","torrent":{"xt":"urn:btih:9616ea9eb23266061ebfa3109335790a84eb7ffe","amp;dn":"This.Means.War.2012.TS.XviD-Feel-Free","amp;tr":["udp%3A%2F%2Ftracker.openbittorrent.com%3A80","udp%3A%2F%2Fopen.demonii.com%3A1337","udp%3A%2F%2Ftracker.coppersurfer.tk%3A6969","udp%3A%2F%2Fexodus.desync.com%3A6969"],"infoHash":"9616ea9eb23266061ebfa3109335790a84eb7ffe","infoHashBuffer":{"type":"Buffer","data":[150,22,234,158,178,50,102,6,30,191,163,16,147,53,121,10,132,235,127,254]},"announce":[],"urlList":[]}}